#N canvas 73 25 1157 833 10;
#X obj 124 -70 *~;
#X obj 124 -110 adc~;
#X obj 125 137 dac~;
#X obj 164 -97 tgl 15 0 empty empty empty 17 7 0 10 -262144 -1 -1 1
1;
#X obj 195 -96 hsl 128 15 0 4 0 0 empty empty volume -2 -8 0 10 -262144
-1 -1 0 1;
#X obj 160 292 vu 20 120 empty empty -1 -8 0 10 -66577 -1 1 0;
#X obj 99 196 env~;
#X obj 99 219 - 100;
#X floatatom 133 198 5 0 0 0 - - -;
#N canvas 127 721 676 423 peak_value 0;
#X obj -2748 -130 bng 15 250 50 0 empty empty empty 17 7 0 10 -262144
-1 -1;
#X obj -2848 -8 f;
#X obj -2991 11 moses;
#X obj -2825 -71 tgl 15 0 empty empty empty 17 7 0 10 -262144 -1 -1
0 1;
#X msg -2834 -128 0;
#X msg -2802 -130 1;
#X obj -2803 -200 bng 15 250 50 0 empty empty empty 17 7 0 10 -262144
-1 -1;
#X floatatom -2724 -244 5 0 0 0 - - -;
#X obj -2991 -251 inlet env_value;
#X obj -2847 52 outlet peak_value;
#X obj -2825 -45 metro 10;
#X obj -2958 111 outlet bang;
#X obj -2760 -11 - 0.2;
#X obj -2803 -169 delay 200;
#X obj -2851 -251 r bigger_value0;
#X obj -2953 39 s bigger_value0;
#X connect 1 0 2 1;
#X connect 1 0 9 0;
#X connect 1 0 12 0;
#X connect 2 1 11 0;
#X connect 2 1 15 0;
#X connect 3 0 10 0;
#X connect 4 0 3 0;
#X connect 5 0 3 0;
#X connect 6 0 13 0;
#X connect 7 0 13 1;
#X connect 8 0 2 0;
#X connect 10 0 1 0;
#X connect 12 0 1 1;
#X connect 13 0 0 0;
#X connect 13 0 5 0;
#X connect 14 0 4 0;
#X connect 14 0 6 0;
#X connect 14 0 1 0;
#X restore 99 265 pd peak_value;
#N canvas 424 656 454 514 lowpassFilter 0;
#X floatatom 118 -20 0 0 0 0 - - -;
#X floatatom 209 -20 0 0 0 0 - - -;
#X obj 209 3 trigger bang float;
#X obj 118 74 biquad~;
#X obj 121 -65 hsl 128 17 20 20000 1 1 empty empty frequency 5 9 0
10 -203904 -1 -1 1800 0;
#X obj 212 -42 hsl 128 17 0 100 0 1 empty empty bandwidth 5 9 0 10
-261682 -1 -1 1300 0;
#X obj 32 18 inlet~ input;
#X obj 118 46 lowpass;
#X obj 118 138 *~;
#X obj 91 268 outlet~ output;
#X obj 32 172 *~;
#X obj 47 145 -;
#X msg 47 125 1;
#X obj 47 104 t b f;
#X floatatom 66 173 5 0 0 0 - - -;
#X obj 198 71 inlet rate;
#X obj 91 233 *~ 1;
#X obj 285 45 loadbang;
#X msg 285 73 0;
#X msg 58 -40 53;
#X msg 167 -38 10;
#X obj 11 -60 loadbang;
#X connect 0 0 7 0;
#X connect 1 0 2 0;
#X connect 2 0 7 0;
#X connect 2 1 7 1;
#X connect 3 0 8 0;
#X connect 4 0 0 0;
#X connect 5 0 1 0;
#X connect 6 0 3 0;
#X connect 6 0 10 0;
#X connect 7 0 3 0;
#X connect 8 0 16 0;
#X connect 10 0 16 0;
#X connect 11 0 10 1;
#X connect 11 0 14 0;
#X connect 12 0 11 0;
#X connect 13 0 12 0;
#X connect 13 1 11 1;
#X connect 15 0 13 0;
#X connect 15 0 8 1;
#X connect 16 0 9 0;
#X connect 17 0 18 0;
#X connect 18 0 13 0;
#X connect 18 0 8 1;
#X connect 19 0 0 0;
#X connect 20 0 1 0;
#X connect 21 0 19 0;
#X connect 21 0 20 0;
#X restore 175 -39 pd lowpassFilter;
#X obj 271 -64 hsl 128 15 0 1 0 0 empty empty empty -2 -8 0 10 -262144
-1 -1 12700 1;
#X obj 99 599 spigot;
#X obj 100 639 bng 15 250 50 0 empty empty bass_drum 17 7 0 10 -262144
-1 -1;
#X obj 946 -98 hradio 15 1 0 8 empty empty empty 0 -8 0 10 -262144
-1 -1 0;
#X obj 221 -15 s~ lowpass-sound;
#X msg 882 -44 1;
#X msg 913 -45 0;
#X obj 174 72 *~;
#X obj 99 160 r~ lowpass-sound;
#X msg 948 -45 1;
#X msg 978 -45 0;
#N canvas 470 632 450 432 hipassFilter 0;
#X floatatom 118 -20 0 0 0 0 - - -;
#X floatatom 209 -20 0 0 0 0 - - -;
#X obj 209 3 trigger bang float;
#X obj 118 74 biquad~;
#X obj 121 -65 hsl 128 17 20 20000 1 1 empty empty frequency 5 9 0
10 -203904 -1 -1 10600 0;
#X obj 212 -42 hsl 128 17 10 200 1 0 empty empty width 5 9 0 10 -261682
-1 -1 0 0;
#X obj 118 46 highpass;
#X obj 118 161 *~;
#X obj 32 18 inlet~ input;
#X obj 91 291 outlet~ output;
#X obj 32 195 *~;
#X obj 47 168 -;
#X msg 47 148 1;
#X obj 47 127 t b f;
#X floatatom 66 196 5 0 0 0 - - -;
#X obj 198 94 inlet rate;
#X obj 91 256 *~ 1;
#X obj 21 -63 loadbang;
#X msg 177 -41 100;
#X msg 68 -43 6400;
#X connect 0 0 6 0;
#X connect 1 0 2 0;
#X connect 2 0 6 0;
#X connect 2 1 6 1;
#X connect 3 0 7 0;
#X connect 4 0 0 0;
#X connect 5 0 1 0;
#X connect 6 0 3 0;
#X connect 7 0 16 0;
#X connect 8 0 3 0;
#X connect 8 0 10 0;
#X connect 10 0 16 0;
#X connect 11 0 10 1;
#X connect 11 0 14 0;
#X connect 12 0 11 0;
#X connect 13 0 12 0;
#X connect 13 1 11 1;
#X connect 15 0 13 0;
#X connect 15 0 7 1;
#X connect 16 0 9 0;
#X connect 17 0 19 0;
#X connect 17 0 18 0;
#X connect 18 0 1 0;
#X connect 19 0 0 0;
#X restore 421 -41 pd hipassFilter;
#X obj 511 -65 hsl 128 15 0 1 0 0 empty empty empty -2 -8 0 10 -262144
-1 -1 12700 1;
#X obj 468 -17 s~ hipass-sound;
#X obj 947 -70 sel 2;
#X obj 881 -69 sel 1;
#X msg 818 -43 1;
#X msg 849 -44 0;
#X obj 817 -68 sel 0;
#X obj 818 -17 tgl 15 0 empty empty empty 17 7 0 10 -262144 -1 -1 0
1;
#X obj 882 -17 tgl 15 0 empty empty empty 17 7 0 10 -262144 -1 -1 0
1;
#X obj 948 -18 tgl 15 0 empty empty empty 17 7 0 10 -262144 -1 -1 0
1;
#X obj 367 298 vu 20 120 empty empty -1 -8 0 10 -66577 -1 1 0;
#X floatatom 498 289 5 0 0 0 - - -;
#X obj 366 194 env~;
#X floatatom 400 196 5 0 0 0 - - -;
#N canvas 635 734 676 423 peak_value 0;
#X obj -2748 -130 bng 15 250 50 0 empty empty empty 17 7 0 10 -262144
-1 -1;
#X obj -2848 -8 f;
#X obj -2991 11 moses;
#X obj -2825 -71 tgl 15 0 empty empty empty 17 7 0 10 -262144 -1 -1
1 1;
#X msg -2834 -128 0;
#X msg -2802 -130 1;
#X obj -2803 -200 bng 15 250 50 0 empty empty empty 17 7 0 10 -262144
-1 -1;
#X floatatom -2724 -244 5 0 0 0 - - -;
#X obj -2991 -251 inlet env_value;
#X obj -2847 52 outlet peak_value;
#X obj -2825 -45 metro 10;
#X obj -2958 111 outlet bang;
#X obj -2760 -11 - 0.2;
#X obj -2803 -169 delay 200;
#X obj -2851 -251 r bigger_value1;
#X obj -2953 39 s bigger_value1;
#X connect 1 0 2 1;
#X connect 1 0 9 0;
#X connect 1 0 12 0;
#X connect 2 1 11 0;
#X connect 2 1 15 0;
#X connect 3 0 10 0;
#X connect 4 0 3 0;
#X connect 5 0 3 0;
#X connect 6 0 13 0;
#X connect 7 0 13 1;
#X connect 8 0 2 0;
#X connect 10 0 1 0;
#X connect 12 0 1 1;
#X connect 13 0 0 0;
#X connect 13 0 5 0;
#X connect 14 0 4 0;
#X connect 14 0 6 0;
#X connect 14 0 1 0;
#X restore 423 260 pd peak_value;
#X obj 423 532 spigot;
#X obj 423 572 bng 15 250 50 0 empty empty cymbals 17 7 0 10 -262144
-1 -1;
#X floatatom 366 520 5 0 0 0 - - -;
#X obj 366 158 r~ hipass-sound;
#X obj 164 -129 loadbang;
#X floatatom 567 246 5 0 0 0 - - -;
#N canvas 765 355 940 648 switch_average 0;
#X obj -37 94 cnv 15 350 350 empty empty empty 20 12 0 14 -233017 -66577
0;
#X obj 459 104 cnv 15 350 350 empty empty empty 20 12 0 14 -233017
-66577 0;
#X floatatom 40 261 5 0 0 0 - - -;
#X obj 75 17 inlet value;
#N canvas 312 827 450 300 average 0;
#X obj 161 99 f;
#X obj 285 104 + 1;
#X obj 256 104 f;
#X floatatom 256 143 5 0 0 1 num - -;
#X msg 285 1 0;
#X obj 161 25 bng 15 250 50 0 empty empty empty 17 7 0 10 -262144 -1
-1;
#X floatatom 129 145 8 0 0 1 sum - -;
#X obj 129 100 +;
#X obj 194 196 /;
#X obj 130 -26 inlet value;
#X obj 194 226 outlet average;
#X obj 283 -22 inlet init;
#X obj 313 227 outlet number;
#X connect 0 0 7 1;
#X connect 1 0 2 1;
#X connect 2 0 1 0;
#X connect 2 0 3 0;
#X connect 3 0 8 1;
#X connect 3 0 12 0;
#X connect 4 0 1 0;
#X connect 4 0 0 1;
#X connect 4 0 6 0;
#X connect 4 0 7 1;
#X connect 5 0 0 0;
#X connect 5 0 2 0;
#X connect 6 0 8 0;
#X connect 7 0 6 0;
#X connect 7 0 0 1;
#X connect 8 0 10 0;
#X connect 9 0 7 0;
#X connect 9 0 5 0;
#X connect 11 0 4 0;
#X restore 75 241 pd average;
#X obj 297 484 outlet;
#X obj 61 410 f;
#X floatatom 530 282 5 0 0 0 - - -;
#N canvas 633 833 450 300 average 0;
#X obj 161 102 f;
#X obj 285 104 + 1;
#X obj 256 104 f;
#X floatatom 256 143 5 0 0 1 num - -;
#X msg 285 2 0;
#X obj 161 25 bng 15 250 50 0 empty empty empty 17 7 0 10 -262144 -1
-1;
#X floatatom 129 145 8 0 0 1 sum - -;
#X obj 129 100 +;
#X obj 194 196 /;
#X obj 130 -26 inlet value;
#X obj 194 226 outlet average;
#X obj 285 -24 inlet init;
#X obj 313 227 outlet number;
#X connect 0 0 7 1;
#X connect 1 0 2 1;
#X connect 2 0 1 0;
#X connect 2 0 3 0;
#X connect 3 0 8 1;
#X connect 3 0 12 0;
#X connect 4 0 1 0;
#X connect 4 0 0 1;
#X connect 4 0 7 1;
#X connect 5 0 0 0;
#X connect 5 0 2 0;
#X connect 6 0 8 0;
#X connect 7 0 6 0;
#X connect 7 0 0 1;
#X connect 8 0 10 0;
#X connect 9 0 7 0;
#X connect 9 0 5 0;
#X connect 11 0 4 0;
#X restore 567 257 pd average;
#X obj 552 408 f;
#X msg 624 155 1;
#X msg 132 140 1;
#X obj 372 22 loadbang;
#X obj 675 20 inlet interval_10msecs;
#X obj 132 339 moses 100;
#X obj 624 116 r count_on2_off1;
#X obj 133 107 r count_on1_off2;
#X obj 183 373 s switch_value2;
#X obj 451 320 r switch_value2;
#X obj 687 298 sel;
#X obj 687 325 s count_on1_off2;
#X obj 675 393 s switch_value1;
#X obj 467 387 metro 10;
#X obj 467 360 tgl 15 0 empty empty empty 17 7 0 10 -262144 -1 -1 0
1;
#X obj 417 301 r switch_value1;
#X obj 212 310 sel;
#X obj -38 293 r switch_value2;
#X obj -20 378 metro 10;
#X obj -20 351 tgl 15 0 empty empty empty 17 7 0 10 -262144 -1 -1 1
1;
#X obj -3 312 r switch_value1;
#X obj 212 339 s count_on2_off1;
#X msg 452 337 1;
#X msg 417 337 0;
#X msg -3 331 1;
#X msg -38 331 0;
#X msg 372 65 500;
#X obj 624 349 moses 100;
#X obj 227 282 - 350;
#X obj 702 270 - 350;
#X connect 3 0 4 0;
#X connect 3 0 8 0;
#X connect 4 0 2 0;
#X connect 4 0 6 1;
#X connect 4 1 14 0;
#X connect 4 1 25 0;
#X connect 6 0 5 0;
#X connect 8 0 7 0;
#X connect 8 0 9 1;
#X connect 8 1 19 0;
#X connect 8 1 36 0;
#X connect 9 0 5 0;
#X connect 10 0 8 1;
#X connect 11 0 4 1;
#X connect 12 0 11 0;
#X connect 12 0 35 0;
#X connect 12 0 10 0;
#X connect 12 0 33 0;
#X connect 13 0 14 1;
#X connect 13 0 36 1;
#X connect 13 0 38 0;
#X connect 14 1 17 0;
#X connect 15 0 10 0;
#X connect 16 0 11 0;
#X connect 18 0 31 0;
#X connect 19 0 20 0;
#X connect 22 0 9 0;
#X connect 23 0 22 0;
#X connect 24 0 32 0;
#X connect 25 0 30 0;
#X connect 26 0 34 0;
#X connect 27 0 6 0;
#X connect 28 0 27 0;
#X connect 29 0 33 0;
#X connect 31 0 23 0;
#X connect 32 0 23 0;
#X connect 33 0 28 0;
#X connect 34 0 28 0;
#X connect 35 0 14 1;
#X connect 35 0 36 1;
#X connect 35 0 37 0;
#X connect 35 0 38 0;
#X connect 36 1 21 0;
#X connect 37 0 25 1;
#X connect 38 0 19 1;
#X restore 567 218 pd switch_average;
#X msg 420 -107 1;
#N canvas 380 749 452 343 growth 0;
#X obj 83 173 -;
#X obj 110 148 f;
#X obj 83 14 inlet value;
#X obj 125 111 f;
#X obj 83 207 t f b;
#X obj 83 275 outlet growth;
#X msg 173 80 0;
#X obj 83 77 t f b;
#X obj 83 242 abs;
#X connect 0 0 4 0;
#X connect 1 0 0 1;
#X connect 2 0 7 0;
#X connect 3 0 1 1;
#X connect 4 0 8 0;
#X connect 4 1 3 0;
#X connect 6 0 1 1;
#X connect 6 0 3 1;
#X connect 7 0 0 0;
#X connect 7 0 3 1;
#X connect 7 1 1 0;
#X connect 8 0 5 0;
#X restore 279 433 pd growth;
#X floatatom 279 480 5 0 0 0 - - -;
#X obj 279 456 array_average;
#X obj 188 537 +;
#X floatatom 209 570 5 0 0 0 - - -;
#X obj 279 506 * 4;
#X obj 188 433 array_average;
#X obj 99 670 s bass_drum;
#X obj 431 627 s cymbal;
#X obj 62 246 change;
#X obj 161 569 > -20;
#X obj 456 502 > -30;
#X obj 421 70 *~;
#X obj 124 72 *~;
#X floatatom 152 41 5 0 0 0 - - -;
#X obj 222 20 hsl 128 15 0 4 0 0 empty empty empty -2 -8 0 10 -262144
-1 -1 0 1;
#X obj 366 217 - 70;
#X connect 0 0 10 0;
#X connect 0 0 22 0;
#X connect 0 0 59 0;
#X connect 1 0 0 0;
#X connect 1 1 0 0;
#X connect 3 0 0 1;
#X connect 4 0 0 1;
#X connect 5 0 46 0;
#X connect 5 0 52 0;
#X connect 5 0 56 0;
#X connect 6 0 7 0;
#X connect 7 0 5 0;
#X connect 7 0 55 0;
#X connect 8 0 7 1;
#X connect 9 0 12 0;
#X connect 9 1 5 1;
#X connect 10 0 15 0;
#X connect 10 0 18 0;
#X connect 11 0 10 1;
#X connect 12 0 13 0;
#X connect 13 0 53 0;
#X connect 14 0 25 0;
#X connect 14 0 26 0;
#X connect 14 0 29 0;
#X connect 16 0 31 0;
#X connect 17 0 31 0;
#X connect 18 0 2 0;
#X connect 18 0 2 1;
#X connect 19 0 6 0;
#X connect 20 0 32 0;
#X connect 21 0 32 0;
#X connect 22 0 24 0;
#X connect 22 0 58 0;
#X connect 23 0 22 1;
#X connect 25 0 20 0;
#X connect 25 1 21 0;
#X connect 26 0 16 0;
#X connect 26 1 17 0;
#X connect 27 0 30 0;
#X connect 28 0 30 0;
#X connect 29 0 27 0;
#X connect 29 1 28 0;
#X connect 30 0 59 1;
#X connect 31 0 18 1;
#X connect 32 0 58 1;
#X connect 33 0 40 0;
#X connect 33 0 57 0;
#X connect 35 0 62 0;
#X connect 36 0 62 1;
#X connect 37 0 38 0;
#X connect 37 1 34 0;
#X connect 37 1 33 1;
#X connect 38 0 39 0;
#X connect 39 0 54 0;
#X connect 41 0 35 0;
#X connect 42 0 3 0;
#X connect 42 0 45 0;
#X connect 44 0 43 0;
#X connect 45 0 11 0;
#X connect 45 0 23 0;
#X connect 46 0 48 0;
#X connect 47 0 51 0;
#X connect 48 0 47 0;
#X connect 49 0 50 0;
#X connect 51 0 49 1;
#X connect 52 0 49 0;
#X connect 55 0 9 0;
#X connect 56 0 12 1;
#X connect 57 0 38 1;
#X connect 58 0 2 0;
#X connect 58 0 2 1;
#X connect 59 0 2 0;
#X connect 59 0 2 1;
#X connect 60 0 59 1;
#X connect 61 0 60 0;
#X connect 62 0 33 0;
#X connect 62 0 37 0;
