#N canvas 606 135 1277 815 10;
#X obj -1743 73 OSCroute /LEFT;
#X obj -1089 86 OSCroute /RIGHT;
#X obj -1468 31 dumpOSC 1234;
#X text -1465 1 Receiver;
#X symbolatom -1726 240 10 0 0 0 - - -;
#X symbolatom -1652 241 10 0 0 0 - - -;
#X floatatom -1569 240 5 0 0 0 - - -;
#X text -1725 266 kind;
#X text -1569 266 power;
#X obj -1726 173 OSCroute /gesture;
#X obj -1747 365 OSCroute /sensorValues;
#X floatatom -1774 460 5 0 0 0 - - -;
#X floatatom -1773 486 5 0 0 0 - - -;
#X floatatom -1771 512 5 0 0 0 - - -;
#X floatatom -1773 533 5 0 0 0 - - -;
#X floatatom -1632 471 5 0 0 0 - - -;
#X floatatom -1633 495 5 0 0 0 - - -;
#X floatatom -1632 516 5 0 0 0 - - -;
#X floatatom -1589 469 5 0 0 0 - - -;
#X floatatom -1588 497 5 0 0 0 - - -;
#X floatatom -1587 519 5 0 0 0 - - -;
#X floatatom -1540 469 5 0 0 0 - - -;
#X text -1787 553 quaternion;
#X text -1693 549 euler;
#X text -1627 541 acc;
#X text -1585 539 gyro;
#X symbolatom -1054 235 10 0 0 0 - - -;
#X symbolatom -980 236 10 0 0 0 - - -;
#X floatatom -899 237 5 0 0 0 - - -;
#X text -1053 261 kind;
#X text -899 263 power;
#X obj -1054 168 OSCroute /gesture;
#X obj -1086 362 OSCroute /sensorValues;
#X floatatom -1689 466 5 0 0 0 - - -;
#X floatatom -1690 494 5 0 0 0 - - -;
#X floatatom -1690 519 5 0 0 0 - - -;
#X floatatom -1494 469 5 0 0 0 - - -;
#X text -1489 497 shock;
#X obj -1726 202 unpack s s f;
#X text -1652 267 position;
#X obj -1054 197 unpack s s f;
#X text -980 262 position;
#X obj -1747 406 unpack f f f f f f f f f f f f f f f f f f;
#X floatatom -1435 469 5 0 0 0 - - -;
#X floatatom -1434 490 5 0 0 0 - - -;
#X floatatom -1433 512 5 0 0 0 - - -;
#X text -1540 495 mag;
#X text -1436 539 gravity;
#X floatatom -1141 456 5 0 0 0 - - -;
#X floatatom -1140 482 5 0 0 0 - - -;
#X floatatom -1138 508 5 0 0 0 - - -;
#X floatatom -1140 529 5 0 0 0 - - -;
#X floatatom -999 467 5 0 0 0 - - -;
#X floatatom -1000 491 5 0 0 0 - - -;
#X floatatom -999 512 5 0 0 0 - - -;
#X floatatom -956 465 5 0 0 0 - - -;
#X floatatom -955 493 5 0 0 0 - - -;
#X floatatom -954 515 5 0 0 0 - - -;
#X floatatom -907 465 5 0 0 0 - - -;
#X text -1154 549 quaternion;
#X text -1060 545 euler;
#X text -994 537 acc;
#X text -952 535 gyro;
#X floatatom -1056 462 5 0 0 0 - - -;
#X floatatom -1057 490 5 0 0 0 - - -;
#X floatatom -1057 515 5 0 0 0 - - -;
#X floatatom -861 465 5 0 0 0 - - -;
#X text -856 493 shock;
#X obj -1114 402 unpack f f f f f f f f f f f f f f f f f f;
#X floatatom -802 465 5 0 0 0 - - -;
#X floatatom -801 486 5 0 0 0 - - -;
#X floatatom -800 508 5 0 0 0 - - -;
#X text -907 491 mag;
#X text -803 535 gravity;
#X connect 0 0 9 0;
#X connect 0 0 10 0;
#X connect 1 0 31 0;
#X connect 1 0 32 0;
#X connect 2 0 0 0;
#X connect 2 0 1 0;
#X connect 9 0 38 0;
#X connect 10 0 42 0;
#X connect 31 0 40 0;
#X connect 32 0 68 0;
#X connect 38 0 4 0;
#X connect 38 1 5 0;
#X connect 38 2 6 0;
#X connect 40 0 26 0;
#X connect 40 1 27 0;
#X connect 40 2 28 0;
#X connect 42 0 11 0;
#X connect 42 1 12 0;
#X connect 42 2 13 0;
#X connect 42 3 14 0;
#X connect 42 4 33 0;
#X connect 42 5 34 0;
#X connect 42 6 35 0;
#X connect 42 7 15 0;
#X connect 42 8 16 0;
#X connect 42 9 17 0;
#X connect 42 10 18 0;
#X connect 42 11 19 0;
#X connect 42 12 20 0;
#X connect 42 13 21 0;
#X connect 42 14 36 0;
#X connect 42 15 43 0;
#X connect 42 16 44 0;
#X connect 42 17 45 0;
#X connect 68 0 48 0;
#X connect 68 1 49 0;
#X connect 68 2 50 0;
#X connect 68 3 51 0;
#X connect 68 4 63 0;
#X connect 68 5 64 0;
#X connect 68 6 65 0;
#X connect 68 7 52 0;
#X connect 68 8 53 0;
#X connect 68 9 54 0;
#X connect 68 10 55 0;
#X connect 68 11 56 0;
#X connect 68 12 57 0;
#X connect 68 13 58 0;
#X connect 68 14 66 0;
#X connect 68 15 69 0;
#X connect 68 16 70 0;
#X connect 68 17 71 0;
